<svg data-name="Layer 1" xmlns="http://www.w3.org/2000/svg" width="1094.47" height="635.93" viewBox="0 0 1094.47 635.93"><path d="M1094.48 214.21c.12-95-76.09-173.4-171-175.84a175.74 175.74 0 00-172.3 123 177.27 177.27 0 00-72.8 3.36 520.82 520.82 0 01-262.2 0 177.27 177.27 0 00-72.8-3.36 175.74 175.74 0 00-172.3-123c-95 2.44-171.16 80.85-171 175.84A175.62 175.62 0 0090.13 367.4a174.93 174.93 0 00-26.52 92.8c0 96.35 78.56 175.31 174.91 175.72a174.76 174.76 0 0097.62-29.1 175.7 175.7 0 00211.1-13.19 175.7 175.7 0 00211.18 13.19 174.76 174.76 0 0097.62 29.14c96.35-.41 174.94-79.37 174.91-175.72a174.93 174.93 0 00-26.52-92.8 175.62 175.62 0 0090.05-153.23z" fill="#6c63ff" opacity=".1"/><path d="M427.72 282.59s-52-3.67-64 .33-36 57-36 57l77 3 33-7z" fill="#2f2e41"/><path fill="#3f3d56" d="M684.72 635.93l3-126.29 92-1.71v128h-95z"/><path d="M507.11 368.05c6.14 8.36 7.13 19.31 7.9 29.65q2.24 30 4.46 60c1 13.43 2 27-.34 40.3a7.82 7.82 0 01-1 3c-1.06 1.58-3 2.21-4.9 2.64-18.34 4.29-37.49.08-55.85-4.13-3.38-25.3 2.09-51.06 10.81-75 5.32-14.61 11.83-28.73 18.39-42.81 2.69-5.75 5.22-16.17 9.61-20.67 4.96-5.17 7.62 2.54 10.92 7.02z" fill="#2f2e41"/><path d="M507.11 368.05c6.14 8.36 7.13 19.31 7.9 29.65q2.24 30 4.46 60c1 13.43 2 27-.34 40.3a7.82 7.82 0 01-1 3c-1.06 1.58-3 2.21-4.9 2.64-18.34 4.29-37.49.08-55.85-4.13-3.38-25.3 2.09-51.06 10.81-75 5.32-14.61 11.83-28.73 18.39-42.81 2.69-5.75 5.22-16.17 9.61-20.67 4.96-5.17 7.62 2.54 10.92 7.02z" opacity=".1"/><path d="M568.78 466.96c4.11-4.26 8.34-8.6 13.66-11.2 6.61-3.24 14.23-3.45 21.5-4.66 5.71-1 11.34-2.56 17.13-2.86s12 .92 16.21 4.86c5 4.6 6.28 11.79 7.3 18.47 2.45 16.13 4.33 33.86-4.41 47.63-5.91 9.32-16.14 15.43-26.94 17.65-6.7 1.38-13.6 1.38-20.44 1.37l-64.2-.07c-1.19 0-.37-18.66-.09-20.39a35.88 35.88 0 016.49-15.74c9.55-12.61 22.78-23.64 33.79-35.06z" fill="#fbbebe"/><path d="M568.78 466.96c4.11-4.26 8.34-8.6 13.66-11.2 6.61-3.24 14.23-3.45 21.5-4.66 5.71-1 11.34-2.56 17.13-2.86s12 .92 16.21 4.86c5 4.6 6.28 11.79 7.3 18.47 2.45 16.13 4.33 33.86-4.41 47.63-5.91 9.32-16.14 15.43-26.94 17.65-6.7 1.38-13.6 1.38-20.44 1.37l-64.2-.07c-1.19 0-.37-18.66-.09-20.39a35.88 35.88 0 016.49-15.74c9.55-12.61 22.78-23.64 33.79-35.06z" opacity=".1"/><path d="M312.16 233.51l-12.44 16.31c-8.92 11.71-19.31 24.32-33.86 26.53-.9 3.06 2.1 5.76 4.76 7.51 37.83 24.82 81.92 40.71 127.12 42.74 5.82.27 13-.55 15.22-5.95 2-4.89-1.66-10.21-5.56-13.78-5.85-5.37-13.36-10.6-13.93-18.52-.38-5.32 2.62-10.2 4.36-15.25 2.37-6.88 2.42-14.31 2.45-21.58 0-2.62 0-5.33-1-7.75a17.15 17.15 0 00-4-5.31c-13.57-13.41-31.88-20-49.17-27.09-5.8-2.39-16.46-10.18-21.54-3.49-2.38 3.13-2.35 9-4.1 12.74a73.28 73.28 0 01-8.31 12.89z" fill="#fbbebe"/><path d="M312.16 233.51l-12.44 16.31c-8.92 11.71-19.31 24.32-33.86 26.53-.9 3.06 2.1 5.76 4.76 7.51 37.83 24.82 81.92 40.71 127.12 42.74 5.82.27 13-.55 15.22-5.95 2-4.89-1.66-10.21-5.56-13.78-5.85-5.37-13.36-10.6-13.93-18.52-.38-5.32 2.62-10.2 4.36-15.25 2.37-6.88 2.42-14.31 2.45-21.58 0-2.62 0-5.33-1-7.75a17.15 17.15 0 00-4-5.31c-13.57-13.41-31.88-20-49.17-27.09-5.8-2.39-16.46-10.18-21.54-3.49-2.38 3.13-2.35 9-4.1 12.74a73.28 73.28 0 01-8.31 12.89z" opacity=".1"/><circle cx="392.22" cy="176.43" r="84" fill="#fbbebe"/><path d="M370.08 311.96c-12 2.57-24.44-1.06-36.21-4.65-16.94-5.17-35.19-11.29-45.07-26-2.3-3.43-4.23-7.4-7.82-9.43-7.75-4.39-16.72 2.7-23.19 8.81-31.56 29.8-74 49.18-96.7 86.16-12.95 21.11-18.17 46.11-19.53 70.85-.69 12.54-.42 25.35 3.33 37.33 11.28 36 50.9 57.13 63.23 92.78 7.49 21.65 2.08 42.57-1.1 65.26l300.36.62a782.14 782.14 0 01-7.17-129c.25-9.27.67-18.62 2.95-27.62 1.86-7.33 5-14.48 5.07-22 .22-13.83-9.52-26.8-7.47-40.48s15.43-25 12.94-38.48c-3-16-6.44-33.22-13.18-48-3.5-7.72-7.44-15.43-13.37-21.5s-13.43-10.14-21.15-13.48a143.2 143.2 0 00-58.23-11.7 12.49 12.49 0 00-5.3.87c-4.93 2.36-4.89 9.19-6.37 14.46-2.86 10.2-15.95 18.46-26.02 15.2z" fill="#2f2e41"/><path fill="#d0d2d5" d="M481.254 425.817l1.813-.844 13.091 28.1-1.813.844z"/><path fill="#6c63ff" d="M484.784 444.022l10.877-5.068 40.963 87.926-10.877 5.068z"/><path d="M162.08 500.35c-3.71 25.74 8.07 50.83 13.73 76.22 4.19 18.79 5 38.17 5.06 57.42.57-.18.47.19 1 0h205.28c32.86-29.32 66.64-59.07 109.85-67.61 6.2-1.22 12.52-2 18.5-4 22.84-7.7 35.68-31.36 45.68-53.29 3.55-7.79 7-17.13 2.65-24.52a21.59 21.59 0 00-5.92-6.13 51.78 51.78 0 00-47.19-7.26c-28.86 10.07-43 43.1-68.9 59.27-12 7.47-25.95 11-38.84 16.74-19.25 8.61-36 22.21-55.39 30.45-26.27 11.15-55.77 11.83-83 20.37 9.85-11.31 13.24-27.26 11.45-42.15s-8.28-28.84-16.22-41.56c-7.12-11.4-16.25-22.6-29-26.76-22.58-7.35-45.42 8.6-68.74 12.81z" fill="#fbbebe"/><path d="M313.72 214.96c8.57-6.63 10.22-12.23 12.35-22.85 1.33-6.65 1.47-14.21 6.31-19 9.83-9.64 28.88 1.13 39.3-7.87 6.5-5.6 6.17-16.27 12.23-22.34 4.45-4.47 11.28-5.39 17.59-5.67a149.92 149.92 0 0128.48 1.46c6.73 1 13.43 2.44 20.23 2.39 13.6-.1 26.36-6.14 38.61-12.05a5.43 5.43 0 01-4.58-3.07 117.37 117.37 0 0114.69-6.51c-1.32-4.06-10.18-.82-10.63-5.08a4.58 4.58 0 011.16-3l8.64-12.32c-8.21 2.1-16.5-3.58-21.67-10.3s-8.64-14.77-14.71-20.69c-12.15-11.83-31.09-12.15-48-11.73l-31.33.77c-14.54.36-29.24.75-43.32 4.41-6.4 1.66-12.71 4-18.09 7.9-6.76 4.85-11.74 11.79-18.14 17.1-8.57 7.11-19.73 11.39-26.11 20.51a27.46 27.46 0 00-4.54 19.82c1.25 7.76 5.8 14.63 7.64 22.28 3.14 13.13-2 27.14 1 40.32 2.21 9.88 8.69 18.18 15 26.1 1.45 1.82 3.19 3.8 5.51 3.9a10.77 10.77 0 004.1-1.11" fill="#2f2e41"/><path fill="#3f3d56" d="M953.22 543.43v21l-44 55-463-13v-23l124.03-45.21 382.97 5.21z"/><path opacity=".1" d="M953.22 543.43v21l-44 55-463-13v-21l460 11 47-53z"/><path fill="#d0d2d5" d="M953.22 525.43v18l-47 53-340-8.13v-21.87l111-41h276z"/><path opacity=".1" d="M953.22 525.43v18l-47 53-340-8.13v-21.87l340 9 47-50z"/><path fill="#3f3d56" d="M684.22 543.43l3-221 92-3v224h-95z"/><path d="M345.24 457.85l11.05 7-6.71-12.2a10.92 10.92 0 016.68-2.39h.18a11.66 11.66 0 002.29-.17l3.75 2.38-1.61-2.92a13.35 13.35 0 006.55-5l6.7 4.25-4.23-7.7c3.92-4.71 9.2-7.59 15-7.59 7 0 13.18 4.14 17.18 10.6a12.86 12.86 0 0011.36 6.13h.38c7.69 0 13.93 8.73 13.93 19.49s-6.24 19.48-13.93 19.48a10.37 10.37 0 01-4.85-1.21 20.12 20.12 0 00-16.87-.33 17.59 17.59 0 01-14.33 0 20.15 20.15 0 00-16.72.33 10.42 10.42 0 01-4.8 1.18c-7.69 0-13.93-8.72-13.93-19.48a24.63 24.63 0 012.93-11.85z" fill="#6c63ff"/><path d="M366.02 486.36a20.58 20.58 0 0111.94 1.3 17.62 17.62 0 0014.34 0 20.1 20.1 0 0116.86.33 10.53 10.53 0 004.85 1.21c6.84 0 12.52-6.89 13.71-16a13.08 13.08 0 01-3.42-3.68c-4-6.46-10.22-10.61-17.18-10.61s-13.11 4.1-17.12 10.49a13.18 13.18 0 01-11.35 6.24h-.18c-5.44 0-10.16 4.32-12.45 10.72zm-210.24-89.12c-3.32 13.38-6.65 26.8-8.32 40.48a169.62 169.62 0 002.4 55.41c1.13 5.35 2.52 10.7 2.5 16.17s-1.67 11.19-5.72 14.85c25.46-16.7 59.8-18.85 87.15-5.46 13.34 6.53 26.59 16.76 41.26 14.44 1.35-8.23-6.64-16-4.77-24.17 1.37-5.94 7.6-9.72 9.32-15.57 2.21-7.47-3.54-14.68-6.09-22a58.51 58.51 0 01-2.27-11.22c-2.14-15.55-5-31.14-10.85-45.71s-14.89-28.17-27.59-37.41c-7.68-5.59-16.46-9.39-25.39-12.49-7.05-2.44-17.31-7.31-24.93-6-16.41 2.94-23.34 25.2-26.7 38.68z" opacity=".1"/><path d="M152.78 394.24c-3.32 13.38-6.65 26.8-8.32 40.48a169.62 169.62 0 002.4 55.41c1.13 5.35 2.52 10.7 2.5 16.17s-1.67 11.19-5.72 14.85c25.46-16.7 59.8-18.85 87.15-5.46 13.34 6.53 26.59 16.76 41.26 14.44 1.35-8.23-6.64-16-4.77-24.17 1.37-5.94 7.6-9.72 9.32-15.57 2.21-7.47-3.54-14.68-6.09-22a58.51 58.51 0 01-2.27-11.22c-2.14-15.55-5-31.14-10.85-45.71s-14.89-28.17-27.59-37.41c-7.68-5.59-16.46-9.39-25.39-12.49-7.05-2.44-17.31-7.31-24.93-6-16.41 2.94-23.34 25.2-26.7 38.68z" fill="#2f2e41"/><path d="M935.13 370.29c-3.52 19.87-17.95 35.77-31.76 50.49-17.63 18.79-34.21 37.38-51.84 56.18H625.42c-2.16 0-5.08-.42-7.17.18l-3.39 1c-16.79-12.35-29.79-29-42.56-45.5l-23.12-29.8c-11.8-15.22-24.27-32.81-21.4-51.85a11.23 11.23 0 012.12-5.63 13 13 0 014.15-2.89c32-16.25 68-22.5 102.5-32.63 5.34-1.57 11-3.43 14.61-7.64 4.88-5.61 5-13.76 6.51-21s4.75-14.36 6.56-21.7c2.09-8.53 2.25-17.39 2.39-26.18q.24-14.18.47-28.35t.46-28.15c37-.72 73.52-3.57 110.36-.7 3.77.3 7.85.75 10.59 3.34 2.11 2 3 4.92 3.77 7.74 2.93 11.18 4.26 22.62 5.12 34.16 1.25 16.72 1.53 33.61 4.32 50.12 1.54 9.13 4 18.46 9.86 25.64 8.13 10 21.23 14.08 33.49 18q38.11 12.12 75 27.6c3.69 1.55 7.46 3.19 10.28 6 5.46 5.38 6.13 14 4.79 21.57z" fill="#d0d2d5"/><path d="M797.39 221.3c-7.46 8.11-22.24 12.93-30.63 17.53s-17 9.24-26.42 10.19c-11.13 1.13-22.05-3-32.48-7-5.61-2.18-11.25-4.38-16.33-7.6-11-7-18.11-17.84-24.44-29.47l.46-28.15c37-.72 73.52-3.57 110.36-.7 3.77.3 7.85.75 10.59 3.34 2.11 2 3 4.92 3.77 7.74 2.97 11.14 4.26 22.58 5.12 34.12z" opacity=".1"/><path d="M814 171.83c2.66-2 5.81-3.34 8.38-5.48a28.56 28.56 0 006.37-8.38c4.55-8.18 7.94-17.39 7.21-26.72s-6.34-18.71-15.2-21.72c5.57-17.2 1-35.85-3.66-53.33-1.49-5.63-3-11.32-5.7-16.49-5.41-10.35-15.11-17.74-25-23.9-11.39-7.09-23.72-13.12-37-15.09-13.75-2-27.87.41-40.95 5.1-7 2.52-14 5.8-19.22 11.16-3.81 3.91-6.51 8.76-9.87 13.07-5.44 7-12.64 12.59-17.14 20.21-5 8.45-6.15 18.53-7.22 28.29l-3.56 32.41c-2.36-3.29-7.47-3.59-11-1.52s-5.55 5.88-6.86 9.71a39.72 39.72 0 004 33.73c2.77 4.33 6.36 8.07 9.53 12.12 16.12 20.54 22.29 49.65 44.34 63.66 5.08 3.22 10.72 5.42 16.33 7.6 10.43 4 21.35 8.17 32.48 7 9.46-1 18.08-5.63 26.42-10.2 10.21-5.59 29.92-11.53 34.33-23.32 4.92-12.84.23-28.25 12.99-37.91z" fill="#d0d2d5"/><path d="M708.84 180.31c2.86-2.12 5.59-4.49 8.82-6a18.9 18.9 0 0114.17-.6 8.17 8.17 0 002.88.74 10 10 0 003.62-1.29c4.43-1.93 9.58-.53 14 1.42a122.27 122.27 0 0116.83 9.66 39.26 39.26 0 00-6.19 2.54c-2.29 1.18-4.47 2.59-6.76 3.78a51.09 51.09 0 01-18.48 5.07 42.94 42.94 0 01-5.19.25c-7.07-.14-13.85-2.69-20.46-5.21l-5.84-2.2-2.91-1.1c-.59-.23-2.46-.58-2.79-1.09-.69-1 2.47-2.16 3.37-2.7 1.71-1.01 3.33-2.11 4.93-3.27zm57.4-79.27a22.29 22.29 0 012.35-.9 21.64 21.64 0 0125.1 9.55c-.73.16-1.36-.46-1.92-.95a20.87 20.87 0 00-5.13-2.79c-1.21-.57-2.38-1.23-3.61-1.75a22.47 22.47 0 00-13.74-.81c-4.37 1-8 3.2-12 5.11 0-1.45 2.72-3.44 3.78-4.31a22.69 22.69 0 015.17-3.15zm11 14.71c4.34.14 9-.34 12.38-3-2.06-.2-4.07.53-6.08 1a25.2 25.2 0 01-11.2.09c-1.84-.41-3.64-1-5.51-1.33a8.65 8.65 0 00-4.63.21c.48 1.39 5.59 1.91 7 2.17a54.59 54.59 0 008.04.86zm-75.1-14.71a21.48 21.48 0 00-2.35-.9 21.64 21.64 0 00-25.1 9.55c.73.16 1.36-.46 1.93-.95a20.8 20.8 0 015.12-2.78c1.21-.57 2.38-1.23 3.61-1.75a22.5 22.5 0 0113.75-.81c4.36 1 8 3.2 11.95 5.11 0-1.45-2.73-3.44-3.79-4.31a22.47 22.47 0 00-5.12-3.16zm-11.02 14.71c-4.33.14-9-.34-12.37-3 2.06-.2 4.07.53 6.08 1a25.16 25.16 0 0011.19.09c1.85-.41 3.65-1 5.51-1.33a8.7 8.7 0 014.64.21c-.48 1.39-5.6 1.91-7 2.17a54.87 54.87 0 01-8.05.86z" opacity=".1"/><ellipse cx="720.51" cy="153.37" rx="6.36" ry="2.55" opacity=".1"/><ellipse cx="748.52" cy="153.37" rx="6.36" ry="2.55" opacity=".1"/><path d="M599.51 339.83a73.22 73.22 0 0125.19-4.12c8.38.11 16.67 1.66 25 2.53 13.14 1.38 26.38 1.07 39.59.76m161.78.83a73.22 73.22 0 00-25.19-4.12c-8.38.11-16.67 1.66-25 2.53-13.14 1.38-26.38 1.07-39.58.76m-55.49 46.96c3.29 9 14.38 12.72 19.23 21a35.43 35.43 0 013.31 9.21l2.58 10c-1-4.93-2-9.92-1.72-14.94s2.1-10.15 5.88-13.46a29 29 0 016.82-4l15.33-7.27M313.38 176.11c-4.84 4.75-5 12.31-6.31 19-2 9.86-3.55 15.39-10.61 21.43 1.29 1.51 2.81 2.89 4.74 3a10.77 10.77 0 004.1-1.11l8.42-3.44c8.57-6.63 10.22-12.23 12.35-22.85 1.33-6.65 1.47-14.21 6.31-19a12.74 12.74 0 011.34-1.13c-7.6-.41-15.22-.92-20.34 4.1zm170.86-50.15a117.37 117.37 0 0114.69-6.51c-1.32-4.06-10.18-.82-10.63-5.08a4.58 4.58 0 011.16-3l8.64-12.32c-8.21 2.1-16.5-3.58-21.67-10.3s-8.64-14.77-14.71-20.69c-12.15-11.83-31.09-12.15-48-11.73l-31.33.77c-14.07.35-28.28.73-41.93 4.07 7.61-.68 15.29-.88 22.93-1.07l31.33-.77c16.95-.42 35.89-.1 48 11.73 6.07 5.92 9.54 14 14.71 20.69s13.46 12.4 21.67 10.3l-8.64 12.32a4.58 4.58 0 00-1.16 3c.45 4.26 9.31 1 10.63 5.08a117.37 117.37 0 00-14.69 6.51 5.43 5.43 0 004.63 3.08 165.85 165.85 0 01-21.21 9h1.6c13.6-.1 26.36-6.14 38.61-12.05a5.43 5.43 0 01-4.63-3.03zM382.5 140.23c-6.31.28-13.14 1.2-17.59 5.67-6.06 6.07-5.73 16.74-12.23 22.34a9.52 9.52 0 01-.88.69c7.3.37 14.67.81 19.88-3.69 6.5-5.6 6.17-16.27 12.23-22.34a15.53 15.53 0 013.87-2.8c-1.76.02-3.54.05-5.28.13z" opacity=".1"/></svg>