<svg data-name="Layer 1" xmlns="http://www.w3.org/2000/svg" width="1086.87" height="645.26" viewBox="0 0 1086.87 645.26"><defs><linearGradient id="a" x1="1755.38" y1="741.53" x2="1755.38" y2="284.16" gradientTransform="translate(-1462.23)" gradientUnits="userSpaceOnUse"><stop offset="0" stop-color="gray" stop-opacity=".25"/><stop offset=".54" stop-color="gray" stop-opacity=".12"/><stop offset="1" stop-color="gray" stop-opacity=".1"/></linearGradient></defs><path d="M978.35 568.13c5.94-11-.8-24.46-8.54-34.27s-17.18-20-17-32.49c.29-18 19.34-28.55 34.57-38.07a169.08 169.08 0 0031-24.95c3.73-3.82 7.35-7.9 9.53-12.77 3.15-7 3.06-15 2.86-22.69q-1-38.43-3.79-76.78" fill="none" stroke="#3f3d56" stroke-miterlimit="10" stroke-width="4"/><path d="M1055.98 324.71a28 28 0 00-14-22.93l-6.27 12.4.19-15a28 28 0 1020.06 25.55zm-49.93 189.49a28 28 0 111.39-22.57l-17.48 14.23 19.23-4.46a27.66 27.66 0 01-3.14 12.8zm-13.82-54.36a28 28 0 01-29.28-26.66 27.65 27.65 0 012.42-12.75 28 28 0 0118-15.51l-.14 11.54 6.34-12.55h.07a28 28 0 112.62 55.94zm67.96-45.21a28 28 0 1112.38-52.39l-5 13.55 10.18-9.77a27.92 27.92 0 019 19.33 27.34 27.34 0 01-.71 7.71 28 28 0 01-25.85 21.57z" fill="#195675"/><path d="M1052.21 332.17c-6.46.71-12.74 2.72-19.23 3.13s-13.6-1.16-17.71-6.2c-2.21-2.71-3.31-6.15-5.18-9.11a19.94 19.94 0 00-7.05-6.64 28 28 0 1052.34 18.59c-1.06.04-2.12.12-3.17.23zm7.98 82.46a28 28 0 01-26.63-39.94 20.7 20.7 0 015.63 5.64c2 3 3.2 6.49 5.55 9.25 4.35 5.13 11.8 6.81 18.56 6.49s13.28-2.22 20-2.84c.93-.08 1.88-.15 2.82-.17a28 28 0 01-25.93 21.57zm-67.96 45.21a28 28 0 01-29.28-26.66 27.65 27.65 0 012.42-12.75 22.75 22.75 0 015.92 5.69c2.17 3.07 3.53 6.6 6.07 9.44 4.72 5.26 12.66 7.11 19.82 6.94 6.94-.15 13.61-1.85 20.5-2.38a28 28 0 01-25.45 19.72zm13.82 54.36a28 28 0 01-51-22.84 27.93 27.93 0 016.14 5.48c2.66 3.25 4.42 6.92 7.5 9.95 5.72 5.61 15 7.93 23.19 8.15a121.6 121.6 0 0014.17-.74z" opacity=".1"/><ellipse cx="552.2" cy="594.27" rx="510" ry="51" fill="#195675" opacity=".1"/><g opacity=".1"><path d="M90.85 110.99a18.18 18.18 0 014.51-16.85l6.18 6.57-2.87-9.31a18.18 18.18 0 11-7.82 19.59z" fill="#195675"/><path d="M94.57 114.95c4.15-.74 8.44-.64 12.55-1.58s8.27-3.21 9.9-7.1c.88-2.1.94-4.44 1.56-6.63a12.89 12.89 0 013.18-5.43 18.19 18.19 0 11-29.21 21.17c.67-.16 1.34-.31 2.02-.43z" opacity=".1"/></g><g opacity=".1"><path d="M939.01 2.72a14.71 14.71 0 0114-1.67l-3.09 6.61 6.13-4.94a14.68 14.68 0 11-17 0z" fill="#195675"/><path d="M937.16 6.7c1.8 2.89 3 6.13 4.94 8.94s4.89 5.24 8.3 5.29c1.83 0 3.61-.62 5.43-.81a10.56 10.56 0 015 .75A14.69 14.69 0 11936.2 5.31c.35.45.67.91.96 1.39z" opacity=".1"/></g><g opacity=".1"><path d="M1000.67 74.83a17 17 0 0116.2-1.93l-3.57 7.65 7.1-5.73a17 17 0 11-19.73 0z" fill="#195675"/><path d="M998.52 79.43c2.09 3.35 3.48 7.11 5.73 10.36s5.65 6.06 9.6 6.13c2.13 0 4.18-.73 6.3-.95a12.15 12.15 0 015.81.88 17 17 0 11-28.52-18c.38.5.74 1.03 1.08 1.58z" opacity=".1"/></g><g opacity=".2"><path d="M156.44 465.94c-8.79-8.87-6.13-23.7-1.47-35.29s10.84-24 7.12-36c-5.34-17.14-26.61-21.94-43.9-26.77a168.59 168.59 0 01-36.75-15.15c-4.66-2.6-9.28-5.5-12.75-9.56-5-5.84-7.17-13.53-9.15-21q-9.89-37.14-18-74.72" fill="none" stroke="#3f3d56" stroke-miterlimit="10" stroke-width="4"/><path d="M13.31 254.31a28 28 0 016.94-25.95l9.51 10.13-4.41-14.35a28 28 0 11-12 30.17zm101.37 167.7a28 28 0 10-7.66-21.24l20.79 8.71-19.71 1.15a27.72 27.72 0 006.58 11.38zm-2.08-56.05a28 28 0 00-7-55.2l3.39 11-9.55-10.22h-.07a28 28 0 1013.27 54.4zm-77.96-24.21a28 28 0 10-26.66-46.77l8.57 11.65-12.52-6.51a27.91 27.91 0 00-3.22 21.1 27.54 27.54 0 002.85 7.2 28 28 0 0030.98 13.33z" fill="#195675"/><path d="M19.03 260.4c6.4-1.14 13-1 19.33-2.43s12.73-4.94 15.24-10.93c1.36-3.23 1.45-6.84 2.4-10.21a20.07 20.07 0 014.89-8.36 28 28 0 11-45 32.6c1.06-.25 2.1-.44 3.14-.67zm15.61 81.35a28 28 0 0014.28-45.83 20.69 20.69 0 00-3.81 7c-1.06 3.44-1.24 7.12-2.71 10.44-2.74 6.15-9.41 9.86-16 11.47s-13.37 1.61-20 2.91c-.92.19-1.84.39-2.76.64a28 28 0 0031 13.37zm77.96 24.21a28 28 0 0014.65-45.39 22.58 22.58 0 00-4.07 7.13c-1.22 3.56-1.53 7.33-3.17 10.77-3 6.37-10.14 10.39-17 12.25-6.7 1.81-13.58 2.06-20.34 3.5a28 28 0 0029.93 11.74zm2.08 56.05a28 28 0 0042.52-36.31 27.5 27.5 0 00-4.35 7c-1.64 3.86-2.28 7.88-4.39 11.65-3.9 7-12.11 11.84-19.94 14.37a122.41 122.41 0 01-13.84 3.29z" opacity=".1"/></g><path d="M983.44 69.98l-.22 498.29c-35 0 0 0-35.34.18H816.37l-.4-.16a81.06 81.06 0 00-61.23 0l-.33.14H622.62q-6.66-2.7-13-5.92a78.73 78.73 0 00-70.74 0q-6.39 3.21-13 5.92H393.99l-.33-.14a81.06 81.06 0 00-61.23 0l-.4.16H200.54a177 177 0 01-59.81-40.18V69.98z" fill="#fff"/><path d="M983.44 50.49v21.49H140.72V50.49a7.37 7.37 0 017.38-7.38h827.94a7.37 7.37 0 017.4 7.38z" fill="#ededf4"/><circle cx="154.08" cy="57.33" r="3.45" fill="#fa5959" opacity=".8"/><circle cx="163.56" cy="57.33" r="3.45" fill="#fed253" opacity=".8"/><circle cx="173.03" cy="57.33" r="3.45" fill="#8ccf4d" opacity=".8"/><path d="M251.2 71.98v497.47s-45-.18-110.47-1.18V71.98zm733.47 0v498.29c-.42.31-40.24-.46-42 .18h-68.5V71.98z" fill="#ededf4"/><path fill="#fff" d="M155.96 96.27h80v10h-80zm0 23h80v10h-80zm0 23h80v10h-80zm0 23h80v10h-80zm0 23h80v10h-80zm.24 68h80v10h-80zm0 23h80v10h-80zm0 23h80v10h-80zm0 23h80v10h-80zm0 23h80v10h-80zm.23 68h80v10h-80zm0 23h80v10h-80zm0 23h80v10h-80zm0 23h80v10h-80zm0 23h80v10h-80zm723.77-432h10v10h-10zm12 0h10v10h-10zm12 0h10v10h-10zm12 0h10v10h-10zm12 0h10v10h-10zm-48 42h10v10h-10zm12 0h10v10h-10zm12 0h10v10h-10zm12 0h10v10h-10zm12 0h10v10h-10zm-48 42h10v10h-10zm12 0h10v10h-10zm12 0h10v10h-10zm12 0h10v10h-10zm12 0h10v10h-10zm-48 42h10v10h-10zm12 0h10v10h-10zm12 0h10v10h-10zm12 0h10v10h-10zm12 0h10v10h-10zm-48 42h10v10h-10zm12 0h10v10h-10zm12 0h10v10h-10zm12 0h10v10h-10zm12 0h10v10h-10zm-48 42h10v10h-10zm12 0h10v10h-10zm12 0h10v10h-10zm12 0h10v10h-10zm12 0h10v10h-10zm-48 42h10v10h-10zm12 0h10v10h-10zm12 0h10v10h-10zm12 0h10v10h-10zm12 0h10v10h-10zm-48 42h10v10h-10zm12 0h10v10h-10zm12 0h10v10h-10zm12 0h10v10h-10zm12 0h10v10h-10zm-48 42h10v10h-10zm12 0h10v10h-10zm12 0h10v10h-10zm12 0h10v10h-10zm12 0h10v10h-10zm-48 42h10v10h-10zm12 0h10v10h-10zm12 0h10v10h-10zm12 0h10v10h-10zm12 0h10v10h-10zm-48 42h10v10h-10zm12 0h10v10h-10zm12 0h10v10h-10zm12 0h10v10h-10zm12 0h10v10h-10zm-48 42h10v10h-10zm12 0h10v10h-10zm12 0h10v10h-10zm12 0h10v10h-10zm12 0h10v10h-10z"/><path d="M592.69 183.07l-31.57 4.72-65.15 9.73-143.53 21.45-.51.07-47 309.5-.19 1.23 535-233.62 1.42-.62zm216.23 99.37l-16.48 6.24-24.3-11.81 16.35-5.49zm-261.37-86.52l.54-.08 6 3.71-4.09.66-7.28 1.17-5.57-3.85 8.54-1.3zm-5.11 6.92l5.29 3.66 2.67 1.85-2.67.53-2 .4-5.29 1.05-7.66-5.93 9.06-1.46zm8.34-1.35l5.15-.84 8.09 5-11.75 2.34-2.59-1.79-5.29-3.66zm22.87-3.7l10.24-1.65 7.63 4-11 2.19-4.1-2.34-3.64-2.08zm9.68 7.75l4.71 2.69-1.08.22-11.87 2.36-7.37-4.53 12.54-2.49zm-33.89 11.81l10.81-2.16 1.6 1.12.37.25 2.31 1.6-11 2.37-3.09-2.44-.23-.19zm12.69-2.53l12.69-2.53 3 1.84.56.34.86.53-12.8 2.77-2.12-1.47-.38-.27zm-40.69 76.69l-24.88 6.56-7.21-12.75 23.51-5.69zm-9.4-13.11l-23.4 5.68-6-10.63 21.64-5.12.46-.11 5.73 8v.07zm75.53-44.33l2.3 1.6-5.7 1.23-6.73 1.44-.72.16-1.83-1.42-2.12-1.65-9-7 11.75-2.68 8.42 5.83zm-41.36-1.6l1.54-.35 14.34-3.27 8.92 6.91 2.12 1.65 1.9 1.47-16.88 3.65-2.39-2-1.62-1.36-7-5.88zm30.23 7.51l1.55 1.2.54.42 7.66 5.93-17.3 4.1-9.45-8zm-20 2.92l-5.47 1.18h-.1l-28.67 6.2-1.19.26-8.78-10.35 9.65-2.2 22.56-5.14zm-34.2 8.8l27.56-6 2.37-.51 5.59-1.21 9.49 8-6.34 1.5-2.33.55-28.82 6.82-7.52-8.86-.23-.27zm15.34 20.51l-14.7 3.56-9.4 2.28-7.31-10.17 16.39-3.88 6.7-1.58zm-14.67 5l15.67-3.79 9.42 11.11-24.72 6.52-.42.11-8.52-11.87zm7.86-15.12l29-6.86 2.33-.55 6.45-1.53 10.68 9-4.65 1.13-9 2.17-26.54 6.44zm39.47-9.34l17.35-4.1 3.65 2.83 7.62 5.91-7.62 1.85-10.33 2.5zm21-3l-1.93-1.5 1.93-.46 12-2.83 12.18 8.43-14.82 3.59zm0-3.38l-3.33.79-8.3-6.43-1.45-1.1 3.68-.8 9.36-2h.17l10.28 7.12zm-28.83-19l-7.43-5.74 11.12-2.39 7.9 5.47zm-1.74.4l-12.93 2.95-2 .45-.86.2-7.12-6 8-1.72 2-.43 5.52-1.19zm-17.48 4l-21.39 4.86-10.62 2.42-5.74-6.75 16.12-3.47 14.42-3.11zm-33.48 7.63l-12.16 2.77-8.46 1.93-5.12-7.13 13.3-2.86 6.67-1.48zm-12.11 4.18l13.11-3 8.73 10.31-21.47 4.65-.6.13-7.45-10.38zm22.84 8.5l1.82 2.14 5.95 7-5.72 1.41-17.23 4-7-9.78zm19.6 20.95l24.58-6 10.65-2.59 5.24-1.27 10.68 9 .8.67-.8.21-41.76 11zm51.16-2.62l-9-7.6 9-2.18 9-2.19 11.84 9.19-18.41 4.86zm10.73-12.39l14.94-3.62 12.48 8.64-15.63 4.12zm16.74-4.05l17.16-4.16 13.12 8.06-17.85 4.76zm-1.52-1.06l-12.16-8.42 16-3.79 13.16 8.09zm-13.71-9.48l-10.24-7.09 15.33-3.31 10.83 6.6zm-11.79-8.16l-.47-.33-13.84-9.58 13.66-3.12.18.11 15.65 9.63zm-15.85-11l-7.87-5.45 13-2.8 8.41 5.17zm-27.36-6l3.33 2.57-4.1.88-2 .43-9.32 2-4.1-3.45 5-1 1.84-.36h.08l6.45-1.29 2-.39.54.43zm-27 4.6l9.11-1.82 4.13 3.48-13.12 2.83-17.12 3.75-3.47-4.09zm-18.51 8.5l-5.75 1.24-14.13 3-3.21-4.48 17.17-3.43 2.43-.48zm-21.35 4.6l-18 3.87-2.77-4.88 17.52-3.5zm.88 1.22l5.13 7.15-19 4.33-4.28-7.57zm6 8.36l7.44 10.36-20.68 4.48-5.92-10.47zm8.32 11.59l1.31 1.79 5.71 8-.53.12-21.41 5.07-5.93-10.49zm-9.58 27.2l-25.63 6.29-4.69-11.09 24.3-5.75zm.7 1.25l7.23 12.77-27.22 7.27-5.79-13.7zm7.93 14l8.61 15.24-29.1 8.28-6.9-16.22zm1.38-.36l25-6.6 10.23 14.23-26.63 7.58zm26.47-7l25.27-6.6 11.28 13.29-26.41 7.51zm26.78-7l40.77-10.76 2.09-.55 13.79 11.71-45.42 12.92zm44.46-11.77l18.52-4.83 14.3 11.08-19 5.41zm20.18-5.32l15.74-4.15 15.14 10.49-16.61 4.72zm17.49-4.51l18-4.74 16 9.83-18.87 5.37zm19.85-5.25l16.1-4.24 16.39 9.35-16.53 4.7zm-1.62-1l-13.07-8 15.69-3.84 13.37 7.63zm-14.72-9.06l-13.15-8.08 15-3.55 13.75 7.84zm-14.81-9.11l-10.79-6.58 14.68-3.18 11 6.27zm-12.46-7.66l-15.86-9.75 13.47-3.07 17 9.68zm-17.54-10.79h-.06l-8.35-5.13 8.32-1.79 4.82-1 8.63 4.93zm-.06-8.35l-4.48 1h-.1l-5.47 1.22-.63-.39-.58-.36-3.15-1.94 11.54-2.3 1.51-.3 4.35 2.48zm-18.1-1.19l-12.54 2.5-6.73-4.67 11.9-2.36zm-14.42 2.87l-10.67 2.13-.31-.24-2-1.55-3.86-3 3.86-.77 2-.4 4.24-.84zm-13 2.09l.52.4-.52.1-14.78 2.95-5.78-4.87 14.9-3zm-16.5 3.79l-8 1.61-21.17 4.22-3.15-3.71-1.31-1.46 1.18-.23 19-3.78 7.67-1.53zm-32.31 4.34l1.53 1.8-1.45.29-18 3.6-3.8-5.3 18.89-3.75zm-19.42 6l-17.35 3.46-3.08-5.44 16.63-3.31zm-18.78 3.75l-19.4 3.87-2.36-5.6 18.67-3.7zm.72 1.26l2.77 4.9-20.09 4.33-2.25-5.33zm3.48 6.16l4.3 7.59-21.15 4.82-3.4-8.05zm5 8.84l5.91 10.45-22.78 4.93-4.44-10.52zm6.62 11.71l5.92 10.5-24.13 5.71-4.76-11.26zm-14.3 28.93l-25.78 6.25-3.3-11.58 24.38-5.77zm.54 1.29l5.8 13.72-27.6 7.28-4.17-14.71zm6.34 15l6.87 16.24-29.72 8.45-4.91-17.37zm7.41 17.52l8 19-32.07 9.86-5.76-20.33zm1.34-.38l29.26-8.33 10.07 17.79-31.3 9.54zm30.59-8.71l26.8-7.63 11.94 16.64-28.68 8.75zm28.21-8l26.53-7.54 13.29 15.65-27.9 8.51zm28-8l45.71-13 16.34 13.76-48.76 14.89zm47.31-13.46l19.1-5.43 17 13.15-19.75 6zm20.74-5.9l16.74-4.69 18 12.46-17.78 5.42zm18.45-5.24l19-5.4 19 11.71-20.08 6.12zm20.79-5.92l16.62-4.72 19.6 11.19-17.19 5.24zm18.5-5.24l15.56-4.43 20.17 10.64-16.18 4.94zm-1.67-1l-16.33-9.29 15-3.95 16.83 8.87zm-18.07-10.29l-13.32-7.59 14.56-3.53 13.65 7.2zm-15.06-8.59l-13.75-7.84 13.8-3.26 14.41 7.6zm-15.5-8.84l-10.94-6.24 13.44-2.9 11.2 5.9zm-12.7-7.23l-17-9.69 12.16-2.78 18.16 9.58zm-18.77-10.7l-8.6-4.91 11.77-2.54 8.9 4.7zm-10.4-5.93l-4.31-2.46 11.67-2.33 4.31 2.27zm-6.13-3.5l-7.79-4.45 11.11-2.2 8.24 4.34zm-11.7-5.08L566 205.24l-8-4.92 12.59-2zm-39.83 7.93l-14.81 2.94-7.76-6.53 14.84-2.4zm-16.53 3.29l-7.58 1.51-17.78 3.53-2.15.43-6.64-7.82 8.48-1.37 10.53-1.7 7.3-1.18zm-29.06 5.77l-18.74 3.73-6.2-8.63 18.27-3zm-20.23 4l-16.46 3.27-5.35-9.39 15.57-2.52zm-17.89 3.56l-18.51 3.68-4.39-10.36 17.52-2.83zm-19.9 4l-18.21 3.62-3.2-11.3 17-2.75zm.55 1.29l2.37 5.6-19.12 3.81-1.63-5.75zm2.92 6.9l2.26 5.35-19.91 4.29-1.64-5.79zm2.81 6.64l3.4 8.06-21.07 4.8-2.42-8.53zm3.95 9.35l4.44 10.51-22.69 4.9-3-10.57zm5 11.8l4.77 11.28-24.22 5.73-3.41-12.07zm-17.15 30.24l-28.24 6.84-1.56-12.16 26.51-6.27zm.37 1.33l4.17 14.77-30.56 8-2-15.9zm4.55 16.06l4.93 17.4-33.29 9.47-2.4-18.76zm5.3 18.73l5.77 20.36-36.43 11.1-2.82-21.94zm6.14 21.68l7 24.68-40.15 13.48-3.47-27zm1.32-.4l32.33-9.86 9.63 22.77-35 11.73zm33.68-10.3l31.45-9.59 11.88 21-33.72 11.32zm32.8-10l28.84-8.79L560 345.23l-30.91 10.4zm30.2-9.18l28-8.54 15.3 18-29.43 9.88zm29.46-9l49.07-15 18.34 15.45-52.14 17.5zm50.64-15.44l19.83-6 18.87 14.62-20.39 6.84zm21.44-6.54l17.9-5.45 19.8 13.71-18.88 6.33zm19.58-6l20.21-6.16 20.67 12.79-21.16 7.1zm22-6.69l17.27-5.27 21.08 12-17.7 5.95zm19.09-5.82l16.26-5 21.49 11.33-16.73 5.62zm18.13-5.53l14.78-4.51 22 10.67-15.31 5.13zm-1.73-.92l-20.12-10.61 14-4 20.82 10.11zm-21.91-11.49l-16.78-8.85 13.36-3.54 17.32 8.41zm-18.58-9.8l-13.59-7.17 12.86-3.12 14 6.79zm-15.44-8.14l-14.39-7.59 12-2.85 15.11 7.34zm-16.24-8.57l-11.14-5.88 11.61-2.51 11.46 5.57zm-13-6.88l-18.2-9.6 10.26-2.33 19.44 9.44zm-20.07-10.58l-8.86-4.68 9.8-2.11 9.21 4.47zm-10.76-5.68l-4.26-2.25 9.65-1.92 4.3 2.08zm-6.2-3.27l-8.23-4.34 9-1.8 8.73 4.24zm-10.17-5.36l-7.52-4 9-1.45 7.49 3.64zm-9.55-5l-6.4-3.37 8.54-1.31 6.7 3.26zm-2.26.37l-9.7 1.52-1.32.21-6.19-3.52 2.84-.43 7.91-1.21zm-13.16 2.13l-12.48 2-6-3.69 12.21-1.92zm-27.9 4.5l-9.52 1.54-5.2-4 9.11-1.39zm-11.37 1.8l-14.74 2.38-5-4.21 14.51-2.22zm-16.54 2.67l-7.21 1.17-9.28 1.5-9.47 1.53-3.93-4.63 13.22-2 4.73-.73 6.93-1.05zm-27.6 4.42l-18.13 3-3.49-4.86 17.68-2.7zm-19.65 3.17l-15.4 2.49-2.89-5.11 14.79-2.26zm-16.85 2.72l-17.36 2.85-2.27-5.38 16.72-2.55zm-18.75 3l-16.84 2.72-1.59-5.61 16.15-2.46zm-18.21 3.01l-17.14 2.77-.77-5.93 16.31-2.49zm.38 1.34l3.2 11.32-19 3.77-1.55-12.33zm3.58 12.65l1.63 5.76-20 4-.77-5.94zm2 7.09l1.64 5.81-21.08 4.54-.81-6.32zm2 7.14l2.42 8.55-22.53 5.14-1.17-9.11zm2.8 9.88l3 10.56-24.36 5.27-1.37-10.65zm3.36 11.89l3.48 12.11-26.32 6.22-1.66-13zm-22.5 32.18l-30.29 7.34.22-12.77 28.51-6.74zm.18 1.38l2 15.93-32.77 8.62.3-17.2zm2.22 17.31l2.41 18.78-35.83 10.19.36-20.26zm2.58 20.16l2.82 22-39.26 12 .42-23.69zm3 23.36l3.46 27-43.46 14.61.53-29.58zm3.64 28.42l4.44 34.57-48.78 18.48.68-38.4zm1.34-.45l40.35-13.54 8.81 31.12-44.73 16.94zm41.66-14l35.14-11.79 12 28.34-38.33 14.52zm36.49-12.25l33.87-11.33 14.61 25.83-36.53 13.83zm35.21-11.82l31-10.41 16.91 23.56-33.32 12.67zm32.41-10.87l29.54-9.91 18.39 21.66-31.06 11.76zm31-10.39l52.42-17.59 21.54 18.15-55.61 21.06zm53.95-18.1l20.41-6.82 22 17-21 7.94zm22-7.39l19-6.37 22.84 15.81-19.9 7.54zm20.62-6.92l21.27-7.14 23.63 14.53-22.13 8.38zm23-7.71l17.78-6 23.85 13.6-18.08 6.85zm19.53-6.56l16.82-5.64 24.09 12.71-17.14 6.49zm18.58-6.24l15.4-5.16 24.4 11.85-15.79 6zm31.78-12.11l-16.28 5.46-21.93-10.6 16-4.87zm-24.09-10.89l-15.9 4.84-20.77-10.09 15.4-4.38zm-23.22-10.49l-15.31 4.36-17.27-8.39 15-4zm-19.62-8.88l-14.86 3.92-13.92-6.76 14.65-3.55zm-16.17-7.32l-14.56 3.53-15.1-7.33 13.95-3.3zm-17.77-8l-13.85 3.27-11.4-5.58 13.71-3zm-13.65-6.18l-13.6 2.87-19.48-9.46 12.39-2.79zm-22.69-10.32l-12.32 2.8-9.17-4.45 11.15-2.4-.15-.7zm-11.51-5.21l-12 2.58-4.24-2.06 10.26-2.05-.26-1.3zm-6.32-2.86l-12 2.38-8.73-4.24 11.56-2.29zm-11.33-5.13l-11.42 2.28-7.42-3.58 11.72-1.89zm-9.33-4.22l-11.6 1.87-6.72-3.26 11.41-1.74zm-14.41-6.52l5.25 2.37-11.35 1.76-5-2.44zm-13.48 2l5 2.45-8.41 1.28-4.77-2.51zm-16.43 2.45l6-.89 4.78 2.52-7.33 1.12-3.3.51-4.54-2.6zm-6.61 1l4.55 2.6-12.14 1.85-4.34-2.66zm-14 2.1l4.35 2.68-10.77 1.64-4-2.76zm-12.4 1.86l4 2.76-9 1.37-3.67-2.84zm-10.54 1.57l3.68 2.85-14.41 2.2-3.58-2.9zm-23 3.44l.35-.05 6.6-1 3.47 2.93-6.82 1-3.48.53-14.21 2.17-2.66-3.13zm-18.43 2.71l2.67 3.13-17.54 2.68-2.34-3.21zm-18.73 2.8l2.33 3.24-14.62 2.23-1.9-3.35zm-15.65 2.33l1.9 3.36-16.55 2.53-1.47-3.48zm-17.53 2.62l1.48 3.48-16 2.44-1-3.6zm-16.9 2.53l1 3.6-16.1 2.46-.48-3.74zm-34 5.07l17-2.54.48 3.74-17.58 2.68zm-.09 5.28l17.82-2.63.76 5.95-18.65 3zm-.14 7.65l18.86-3.05 1.58 12.34-20.61 4.15zm-.17 14.85l20.83-4.13.76 5.94-21.75 4.34zm-.13 7.53l21.95-4.37.81 6.33-22.89 4.93zm-.15 8.31l23.09-5 1.17 9.12-24.43 5.57zm-.2 11.13l24.63-5.61 1.37 10.63-26.19 5.66zm26.17 6.39l1.67 13-28.3 6.7.25-14zm-46.91-57.86l20.33-3-.07 3.88-20.87 3.19zm-.82 5.46l21-3.22-.11 6.26-21.94 3.55zm-1.22 8l22.14-3.58-.29 13.49-24.13 4.8zm-2.45 16.13l24.32-4.84-.1 6.13-25.18 5zm-1.23 7.78l25.37-5.06-.12 6.91-26.39 5.68zm-1.36 9l26.58-5.72-.17 9.73-28 6.38zm-1.8 11.85l28.19-6.42-.19 10.66-29.62 6.41zm-1.84 12.15l29.81-6.45-.25 14.05-31.86 7.53zm-2.52 16.6l32.06-7.6-.23 12.78-33.86 8.22zm-2.26 14.88l34.07-8.25-.35 17.17-36.58 9.65zm-3 20.11l36.78-9.7-.36 20.28-39.74 11.31zm-3.55 23.38l39.95-11.36-.42 23.73-43.42 13.23zm-4.16 27.03l43.61-13.29-.52 29.61-48 16.11zm41.43 107.83l-61.93 27 8.59-56.58 54.23-20.54zm-53.11-31.09l6.52-42.74 48.22-16.18-.63 38.46zm54.5 30.48l.89-50 49-18.55 5.72 44.33zm56.88-24.83l-5.67-44.21 44.93-17 11.1 39.23zm51.64-22.56l-11.09-39.16 38.49-14.57 14.9 35.26zm43.57-19l-14.88-35.2 36.68-13.9 18 31.74zm41-17.92L545 383.87l33.5-12.69 20.52 28.6zm37.39-16.33l-20.42-28.58 31.18-11.8 22.09 26zm34.13-14.91l-22-26 55.88-21.16 25.29 21.31zm60.54-26.44l-25.2-21.23 21-8 25.66 19.88zm22.87-10l-25.56-19.81 20-7.57 26.4 18.28zm22.32-9.75l-26.31-18.23 22.24-8.42 27 16.63zm24.5-10.7l-27-16.56 18.16-6.88 27.08 15.45zm19.87-8.68l-27-15.39 17.21-6.52 27.16 14.32zm19-8.29l-27.06-14.27 15.86-6 27.28 13.25zm17.75-7.75l-27.17-13.2 16.55-6.27 27.11 12.27z" fill="#ededf4"/><path fill="#ededf4" d="M591.2 211.85v64.26l-68.69 15.51-24.37-31.02-2.15-62.06-.06-2.19 62.03-11.08 33.24 26.58z"/><path opacity=".1" d="M591.2 212.3v63.81l-67.96 15.35-.73.16-24.37-31.02-2.15-62.06 25.41 23.28 69.8-9.52z"/><path opacity=".1" d="M591.2 212.5v63.61l-67.96 15.35-1.84-69.64 68.69-8.86 1.11-.46z"/><path fill="#195675" d="M553.46 206.18l-3.38-5.87-3.38-5.86-3.39 5.86-3.38 5.87h5.77v27.09h2v-27.09h5.76zm20.62 56.23l-3.38-5.87-2.34 4.06-17.48-16.56-1.37 1.45 17.82 16.89-.02.03-3.38 5.86h13.53l-3.38-5.86zm8.04-31.48l-6.36-2.33 1.06 6.11-22.8 4.07.35 1.97 22.79-4.07.92 5.26 5.19-4.34 5.2-4.34-6.35-2.33z"/><path d="M367.3 424.3c-1.68-11.25-11.89-37.48-11.89-37.48-.18-.79-.38-1.56-.61-2.33-7.25-24.93-17.29-27.14-17.29-27.14l-35.94-7.66a2.75 2.75 0 01.74.72c-.18 0-.37 0-.57.08a14.09 14.09 0 01-3.15-6.81c-.07-.37-.13-.76-.18-1.15a25.28 25.28 0 00-2.06-38c-.37-.29-.75-.58-1.15-.85 1.7-1.8 1.75-4.31.49-6.81-2.84-5.89-9-9.61-15.32-11.42-4.84-1.39-10.09-1.84-14.88-.32a54.27 54.27 0 00-7.78 3.61c-4.78 2.39-10 4.27-13.63 8.19a4.06 4.06 0 00-1.36 3.29 8.89 8.89 0 001.35 2.39c1 1.79.76 4.05.07 6s-1.73 3.76-2.22 5.76-.3 4.35 1.2 5.78a26 26 0 002.25 1.59 12 12 0 012.14 2.4l4.26 5.75a59 59 0 015.32 8.11 39.36 39.36 0 003.3 6.18 9 9 0 001.42 1.48l-.42-.16a6.45 6.45 0 004.76 1.83h.22a1.29 1.29 0 00.86-.35v.79c.08 2.76.06 5.7-.13 8.46l-.33-.17a2.89 2.89 0 00-3.1.33l-33.11 26.55s-7.2 9.85-6.19 26.83l-5.8 25.48s-7.26 21.62-1.68 37.07 8.81 24.26 8.81 24.26 2.24 17.54 5.58 19 4.8 2.21 4.8 2.21l.67 4.19s.22.41.61 1.1c2.44 4.24 11.47 19.2 16.72 17.6a68 68 0 01.85 12.3l5.19 34.85s3.62 9.49 3.4 14.45 4.24 12 4.24 12a23 23 0 00-2.23 16.22c2.12 9.26 4.8 52.06 4.8 52.06l3.9 10.37-.08 12.07a11.67 11.67 0 01-2.4 5.39c-2.51 2.72-2.34 5.87-8.37 9.59s-9.87 5.13-9.87 10.09a12.93 12.93 0 01-.18 2c-.56 3.63-1.65 5.58 9.47 6.64a29.26 29.26 0 0021.75-7.28s1.93-3.48 11-4.88c0 0 3.09-.17 3.26-2.9.06-.94.05-2.75 0-4.73-.15-3.79-.51-8.2-1-8.42s-1.66-4.08-2-5.46h2.51s2.35-17.54 0-28.9-.22-19.41-.22-19.41l-.45-30s-3.12-3.31-.67-9.16 0-34.74 0-34.74.9-10.37 3.46-12.8.13-15.19 0-15.85l4.57 15.3s2 30.45 6.25 36l1.22 13.78s8.7 12.69 7 19.53 1.79 31.55 1.79 31.55v25.26s-3.91 10.14 1.56 13.78l2.35-.09c-.8.72-1.37 1.81-2.27 2.74-1.05 1.08-1.64 5.17-2 8.69-.28 3-.37 5.54-.37 5.54a9.18 9.18 0 006.7 4c4.35.25 18.74 11.25 18.74 11.25s14.23 0 17.91-.74h.21a4.87 4.87 0 002.78-2.27 5.74 5.74 0 00.67-4.17c-.45-2.18-2.18-4.56-6-6.59-9.55-5-11-9.75-11-9.75l-6.24-9.37h.89s-.56-9.92 6.24-21.07L351 638.4s2.79-16.88-2-26c0 0-.39-9.71 2.81-12.68s-4.26-33.1-4.26-33.1-1.53-16.16-3.37-30.91c7.53 7.14 15.35-18.58 16.66-23.14h.19s0-.13-.09-.34l.09-.33s-1.67-5.95-.45-4.74 4.24-3.31 4.24-3.31-.44-24.6 4.8-37-2.32-42.55-2.32-42.55zM344.87 440v-.06c.78 15-.15 47.07-.15 47.07s-1 4.1-2.14 8.94l-.79-30.45-.75-28.68zm-96-10.35s3.79 47.43 0 54.27c-1.08 1.94-2 5.41-2.74 9.37-1.25-3.29-3.9-11-3-15.11 1.22-5.29-2.46-19.19-2.46-19.52s-.33-7.72 2.35-13.4.89-8.11.89-8.11 2.24-9.32 4.92-7.55z" transform="translate(-56.56 -127.37)" fill="url(#a)"/><path d="M201.5 409.04c-3.3 14.53-16.44-7.43-19.43-12.7l-.61-1.09 1.43-6.68 7.53-3.07a21 21 0 013.37 2.19c4.12 3.22 10.26 10.11 7.71 21.35zm101.94-23.76s0 .11-.08.32l-.11.36c-1.28 4.53-8.95 30.06-16.34 23-8.1-7.77-4.16-25.63-4.16-25.63h.05l17-1.74 3.37 3.46z" fill="#a1616a"/><path d="M293.58 510.87l.43 48.71c-6.67 11.07-6.12 20.92-6.12 20.92l-22 .87c-5.37-3.61-1.53-13.68-1.53-13.68v-25.06s-3.4-24.52-1.76-31.31-6.89-19.38-6.89-19.38l-1.21-13.68c-4.16-5.48-6.13-35.7-6.13-35.7l-4.48-15.19c.12.66 2.44 13.39 0 15.74s-3.39 12.7-3.39 12.7 2.41 28.69 0 34.49.65 9.09.65 9.09l.44 29.78s-2.08 8 .22 19.26 0 28.69 0 28.69h-23.67l.11-12.15-3.81-10.34s-2.63-42.48-4.71-51.68a23.06 23.06 0 012.19-16.09s-4.38-7-4.16-11.94-3.32-14.29-3.32-14.29l-5.09-34.6a67 67 0 00-2.52-19.71c-3-9.85-7.33-22.77-7.33-22.77l4.94.44 25 2.22s60.65-4.08 63.37-.69a11.18 11.18 0 011.14 3.53c2.72 12.24 6.32 50.56 6.32 50.56s7.34 29.89 4.19 32.85-2.76 12.58-2.76 12.58c4.61 9.07 1.88 25.83 1.88 25.83z" fill="#2f2e41"/><path d="M242.31 595.63c-.17 2.71-3.2 2.87-3.2 2.87-8.87 1.4-10.76 4.85-10.76 4.85a28.55 28.55 0 01-21.35 7.23c-10.91-1-9.84-3-9.29-6.6a12.67 12.67 0 00.18-2c0-4.93 3.77-6.32 9.69-10s5.74-6.82 8.21-9.52 2.71-8 2.71-8c2.79-4.85 9.85.73 9.85.73.33 1.72 10.84 1.48 10.84 1.48s1.4 5.58 2.11 5.91c.48.22.83 4.6 1 8.36.05 1.91.07 3.69.01 4.69z" fill="#303d5c"/><path d="M242.31 595.63c-.17 2.71-3.2 2.87-3.2 2.87-8.87 1.4-10.76 4.85-10.76 4.85a28.55 28.55 0 01-21.35 7.23c-10.91-1-9.84-3-9.29-6.6 4.87 1.21 14.2 2.9 19.63-.06 7.56-4.1 13-7 13-7l11.95-6c.06 1.93.08 3.71.02 4.71z" opacity=".1"/><path d="M309.14 610.19a4.78 4.78 0 01-2.73 2.26h-.21c-3.61.73-17.58.73-17.58.73s-14.12-10.91-18.39-11.16a9 9 0 01-6.57-4s.08-2.54.36-5.49c.33-3.5.91-7.56 1.94-8.63 1.89-2 2.3-4.68 6.57-3 0 0 6.07-10.69 13.21-2.43l7.4 11.22s1.39 4.68 10.76 9.69c3.75 2 5.45 4.37 5.89 6.53a5.8 5.8 0 01-.65 4.28z" fill="#303d5c"/><path d="M309.14 610.19c-.84.71-1.76 1.47-2.73 2.26h-.21c-3.61.73-17.58.73-17.58.73s-14.12-10.91-18.39-11.16a9 9 0 01-6.57-4s.08-2.54.36-5.49c4.34 1.3 10.93 3.6 12.7 6.07 2.7 3.77 10.93 9 10.93 9s15.33-1.47 22.14-1.68a5.8 5.8 0 01-.65 4.27z" opacity=".1"/><path d="M249.44 228.11l-20.21 21.35s-24.47-1.8-20.2-9c2.18-3.68 2.52-11.39 2.33-18.09-.18-6.46-.85-12-.85-12s34.33-17.08 31.7-1.15a26.3 26.3 0 00-.1 9.1c1.52 8.04 7.33 9.79 7.33 9.79z" fill="#a1616a"/><path d="M242.23 209.22a26.3 26.3 0 00-.1 9.1c-4.58 4.63-10.94 3.61-18 3.61-4.66 0-9.66.07-13.41-2.14-.18-6.46-.22-9.42-.22-9.42s34.36-17.08 31.73-1.15z" opacity=".1"/><path d="M249.44 199.21a25.3 25.3 0 01-25.3 25.29 25.29 25.29 0 1125.3-25.29z" fill="#a1616a"/><path d="M283.86 389.03c-6.29 15-46.81 15.3-46.81 15.3v-16.34l-2.45-.16c1.06 4.68-1.49 16.09-1.49 16.09-32 4.52-39.82-13.71-39.82-13.71l1.11-6.24 25 2.22s60.65-4.08 63.37-.69a11.18 11.18 0 011.09 3.53z" opacity=".1"/><path d="M237.05 402.36v-16.34l-2.45-.16c1.06 4.68-1.49 16.09-1.49 16.09-24.1 3.4-34.48-6.09-38.14-11a15.24 15.24 0 01-1.68-2.72l9.77-55 2.3-81 3.53-14.2.81-6.82v-.08h.09l2.49 1.07 14.91 6.45 16.94-12.79.24-.19.85-.63 1.4 1.12 3.48 2.79 11.17 72.11s19.37 55.52 23 77.93c.14.89.26 1.72.35 2.51 2.36 20.48-47.57 20.86-47.57 20.86z" fill="#e1e7ef"/><circle cx="229" cy="240.27" r="1.44" fill="#67647e"/><circle cx="229.66" cy="253.4" r="1.44" fill="#67647e"/><circle cx="231.1" cy="274.67" r="1.44" fill="#67647e"/><circle cx="233.48" cy="297.58" r="1.44" fill="#67647e"/><circle cx="234.92" cy="319.1" r="1.44" fill="#67647e"/><circle cx="236.36" cy="342.01" r="1.44" fill="#67647e"/><circle cx="235.79" cy="364.67" r="1.44" fill="#67647e"/><path d="M210.66 341.22s-1.61 21.07-4.56 27.2-4.27 23.32-4.27 23.32l-6.86-.78a15.24 15.24 0 01-1.68-2.72l9.77-55 2.3-81 3.53-14.2.81-6.82h.1a2.79 2.79 0 012.44 0l.33.17c-.1.28-.2.57-.28.86-2.68 8.38-3.68 23.82-3.68 23.82s3.84 28.25 4.27 41.39-2.22 43.76-2.22 43.76z" opacity=".1"/><path d="M193.79 387.69a4.11 4.11 0 01-.27.51c-2.66 4.5-9.4 7.36-11.45 8.14l-.61-1.09 1.43-6.68 7.53-3.07a21 21 0 013.37 2.19z" opacity=".1"/><path d="M175.55 280.17l-6.24 3.73-5.69 25.29s-7.12 21.46-1.65 36.78 8.65 24.09 8.65 24.09 2.19 17.41 5.48 18.83 4.71 2.19 4.71 2.19l.65 4.16s8.91-3 12.07-8.35-2.32-18.58-2.32-18.58-4.71-11.28-3.51-16.53-2.4-19-2.4-19.38-.33-7.67 2.29-13.3.88-8.05.88-8.05l-1.64-16.1z" fill="#303d5c"/><path d="M284.38 384.3s-16.53 6.24-21.79.76-4.71-31.09-4.71-31.09-5-47.3-8.21-55.07-1.53-63.84-1.53-63.84-2.14-7.25-4-9.14a1.77 1.77 0 00-.39-.32l.63.13 2.25.49 3.48 2.79 11.17 72.11s19.37 55.52 23 77.93z" opacity=".1"/><path d="M303.44 385.94h-.19c-2.07.27-20.45 2.49-20.52-1.34a11.66 11.66 0 01.07-1.32l17-1.74 3.37 3.46c.06.22.11.42.16.57z" opacity=".1"/><path d="M285.81 254.84l12.08 6.3s10 26 11.67 37.21c0 0 7.45 29.91 2.3 42.22s-4.7 36.72-4.7 36.72-3 4.49-4.17 3.28.44 4.71.44 4.71-20.63 2.74-20.72-1.31 4.73-23.43 4.73-23.43 1.31-46.1-.55-53.32-1.08-52.38-1.08-52.38z" fill="#303d5c"/><path d="M249.78 303.93s-6.78 16.64-9 17.74.43 5.47.43 5.47 12.41-17.3 8.57-23.21zm-4.05-58.36c.08-.31-8.1 8-10.29 9.27s8-.07 10.29-9.27zm-22.77 57.06s-12.48 8.07-10.84 11.26 10.84-11.26 10.84-11.26zm22.66 117.8s10.63 6.83 27.16 8.54zm-25.51 16.42s9.86 12.37 14.35 12.7-14.35-12.7-14.35-12.7zm13.8 48.5c-.44.22-5.59 11.17-10.84 11.5s10.84-11.5 10.84-11.5zm45.65 23.98s9.77-2.19 11.94 4.82c0 0-.66-2.19-11.94-4.82zM273 549.4s11.82-2.41 14.34.88-14.34-.88-14.34-.88zm-33.47 5.59c0 .11-12 2.41-11.57 3.94s12.85 1.31 13.28-1.1a2.28 2.28 0 00-1.71-2.84zm29.52 10.4s19.79-2.41 18.54 1.75-18.54-1.75-18.54-1.75zM165.44 321.63c.11.33 13 2.08 14.78 6.24 0 0-12.7-5.91-14.67-5.91m18.1 33.54s-10.73 3.39-10 8.54-1.05-2.41 10-8.54zm-5 26.06s3.91-5.37 7.63-4.38-7.63 4.38-7.63 4.38zm61.29-202.12a6.17 6.17 0 01-1.26.94c-3.11 1.8-3.95 4.58-5.44 7.78-1.36 2.93-2.88 6-5.64 7.7-3.56 2.15-8.26 1.36-12 3.24a9.32 9.32 0 00-4.95 9.15 26.48 26.48 0 001.05 4.19 29.51 29.51 0 011.13 9.11 1.23 1.23 0 010 .27 25.29 25.29 0 1127.1-42.38z" opacity=".1"/><path d="M239.28 171.83c-2.78-5.84-8.82-9.53-15-11.33-4.74-1.38-9.89-1.83-14.6-.32a53.49 53.49 0 00-7.63 3.58c-4.69 2.37-9.85 4.25-13.38 8.14a4 4 0 00-1.33 3.26 8.53 8.53 0 001.32 2.37c1 1.78.74 4 .07 6s-1.7 3.73-2.18 5.72-.29 4.31 1.18 5.73a26.64 26.64 0 002.2 1.58 12 12 0 012.11 2.38l4.17 5.71a58.67 58.67 0 015.23 8 39 39 0 003.24 6.13c1.39 1.85 3.56 3.34 5.87 3.13a1.12 1.12 0 00.92-.44 1.26 1.26 0 00.12-.58 30.07 30.07 0 00-1.13-9.1 25.58 25.58 0 01-1.06-4.2 9.32 9.32 0 014.95-9.15c3.72-1.87 8.42-1.08 12-3.23 2.76-1.67 4.28-4.77 5.64-7.7 1.49-3.21 2.32-6 5.44-7.79s3.39-4.82 1.85-7.89z" fill="#2f2e41"/><path d="M227.95 585.23s3.85 4.93 2.86 7.72-2.86-7.72-2.86-7.72zm52.34 12.32s.86-6.61 4.31-6.67 3.61-.35 6.24.65 5.1 2.59 4.32 2.83-4.54-3.78-8.37-1.73a27.8 27.8 0 00-6.5 4.92zm-63.85-350.59l10.8-7.6s-15.85-9.36-17.74-8.05-3.18 13.15-3.18 13.15z" opacity=".1"/><path d="M216.36 246.46l10.84-7.76s-15.85-9.36-17.74-8-3.18 13.8-3.18 13.8z" fill="#e1e7ef"/><path d="M216.36 246.46l10.84-7.76s-15.85-9.36-17.74-8-3.18 13.8-3.18 13.8z" opacity=".03"/><path d="M211.26 230.75l-.33-.17a2.81 2.81 0 00-3 .32l-32.49 26.36s-7.06 9.77-6.08 26.64l19.08 27.15s2.19-9.2 4.82-7.45c0 0 3.72 47.08 0 53.87s-5.34 32.16-5.34 32.16l12.59 1.42s1.32-17.19 4.27-23.32 4.57-27.19 4.57-27.19 2.66-30.62 2.22-43.76-4.27-41.38-4.27-41.38 1.07-16.53 3.96-24.65z" fill="#303d5c"/><path d="M243.63 242.15l-13.51-5s17.2-18.83 19.34-8.38z" opacity=".1"/><path d="M243.63 241.5l-13.51-5s17.2-18.87 19.32-8.39z" fill="#e1e7ef"/><path d="M243.63 241.5l-13.51-5s17.2-18.87 19.32-8.39z" opacity=".03"/><path d="M243.19 225.48a.74.74 0 01.56.12z" opacity=".1"/><path d="M244.5 224.17l35.83 7.72s9.85 2.19 17 26.93-9.74 55.06-9.74 55.06l-3.73-3.16 1.87 72.26s-16.54 6.24-21.79.77-4.71-31.1-4.71-31.1-5-47.3-8.21-55.07-1.58-63.83-1.58-63.83-2.94-10.02-4.94-9.58z" fill="#303d5c"/><path d="M277.27 270.21c-.51.47-1.1 22.33 1.09 39a212.24 212.24 0 006.21 30l-3.25-66.68s-2.52-3.74-4.05-2.32zm-4.38-18.83c.87.55 4.7 9.63 2.95 13.36s-2.95-13.36-2.95-13.36zm-33.82-79.55a19.69 19.69 0 00-7.88-8.25 18.77 18.77 0 015.91 6.94c1.53 3.07 1.09 6.15-1.92 7.89s-3.95 4.58-5.44 7.78c-1.36 2.93-2.87 6-5.64 7.7-3.56 2.15-8.26 1.36-12 3.23a9.34 9.34 0 00-4.95 9.16 26.76 26.76 0 001.05 4.19 29.51 29.51 0 011.13 9.11 1.14 1.14 0 01-.12.58 1.11 1.11 0 01-.92.44 5.45 5.45 0 01-2.7-.5 6.27 6.27 0 004.67 1.81.9.9 0 001-1 29.75 29.75 0 00-1.12-9.1 25.58 25.58 0 01-1.06-4.2 9.32 9.32 0 015-9.15c3.71-1.87 8.41-1.08 12-3.23 2.77-1.67 4.28-4.77 5.64-7.7 1.5-3.21 2.33-6 5.44-7.79s3.44-4.84 1.91-7.91z" opacity=".1"/></svg>